{"title":"Prometheus (2012) 1CD CAMRip Hindi -Af@q","uid":7459987,"size":1173480079,"categoryP":"video","categoryS":"movies","magnet":"?xt=urn:btih:3ed8b413aca1728ca0e3f682326b454fce99996a&amp;dn=Prometheus+%282012%29+1CD+CAMRip+Hindi+-Af%40q&amp;tr=udp%3A%2F%2Ftracker.openbittorrent.com%3A80&amp;tr=udp%3A%2F%2Fopen.demonii.com%3A1337&amp;tr=udp%3A%2F%2Ftracker.coppersurfer.tk%3A6969&amp;tr=udp%3A%2F%2Fexodus.desync.com%3A6969","seeders":0,"leechers":2,"uploader":"afaq169","files":3,"time":1342745056,"description":"Format : MPEG-4 Visual\nFormat profile : Advanced Simple@L5\nFormat settings, BVOP : 2\nFormat settings, QPel : Yes\nFormat settings, GMC : 3 warppoints\nFormat settings, Matrix : Default (H.263)\nMuxing mode : Packed bitstream\nCodec ID : XVID\nCodec ID/Hint : XviD\nDuration : 1h 56mn\nBit rate : 752 Kbps\nWidth : 592 pixels\nHeight : 256 pixels\nDisplay aspect ratio : 2.35:1\nFrame rate : 25.000 fps\nColor space : YUV\nChroma subsampling : 4:2:0\nBit depth : 8 bits\nScan type : Progressive\nCompression mode : Lossy\nBits/(Pixel*Frame) : 0.198\nStream size : 628 MiB (91%)\n\n\nAudio\nID : 1\nFormat : MPEG Audio\nFormat version : Version 1\nFormat profile : Layer 2\nCodec ID : 50\nDuration : 1h 56mn\nBit rate mode : Constant\nBit rate : 64.0 Kbps\nChannel(s) : 2 channels\nSampling rate : 48.0 KHz\nCompression mode : Lossy\nStream size : 53.5 MiB (8%)\nAlignment : Aligned on interleaves\nInterleave, duration : 160 ms (4.00 video frames)","torrent":{"xt":"urn:btih:3ed8b413aca1728ca0e3f682326b454fce99996a","amp;dn":"Prometheus+%282012%29+1CD+CAMRip+Hindi+-Af%40q","amp;tr":["udp%3A%2F%2Ftracker.openbittorrent.com%3A80","udp%3A%2F%2Fopen.demonii.com%3A1337","udp%3A%2F%2Ftracker.coppersurfer.tk%3A6969","udp%3A%2F%2Fexodus.desync.com%3A6969"],"infoHash":"3ed8b413aca1728ca0e3f682326b454fce99996a","infoHashBuffer":{"type":"Buffer","data":[62,216,180,19,172,161,114,140,160,227,246,130,50,107,69,79,206,153,153,106]},"announce":[],"urlList":[]}}